<svg
   xmlns="http://www.w3.org/2000/svg"
   width="160"
   height="80"
   viewBox="0 0 160 80">
   <path
      fill="#000000"
      stroke-width="0.32"
      d="M 12.946735,77.953638 C 10.296158,77.309696 8.2725139,76.15065 6.2170176,74.099178 0.86425946,68.756902 0.56667322,60.493494 5.5241626,54.859901 7.1936362,52.962746 71.784758,4.457233 74.070394,3.3842528 78.672829,1.2236601 84.020976,1.6484142 88.213712,4.5075264 93.804234,8.3198141 152.81888,52.878192 154.28132,54.391165 c 5.47499,5.664179 5.39835,14.135126 -0.17834,19.711817 -4.42936,4.429367 -10.64275,5.448266 -16.34298,2.679994 C 136.68847,76.262595 123.54087,66.609709 108.00826,54.93943 L 80.176518,34.028314 52.023968,55.140198 C 36.527984,66.760797 23.145045,76.572301 22.25571,76.964355 c -3.188139,1.405466 -6.254549,1.731338 -9.308975,0.989283 z"
   />
</svg>
