<svg
  xmlns="http://www.w3.org/2000/svg"
  width="160"
  height="80"
  viewBox="0 0 160 80">
  <path
    fill="#000000"
    stroke-width="1"
    d="M 6.56,76.642765 C 3.1695597,75.433456 2.3253151,71.357539 4.8992579,68.624896 6.8534886,66.550173 76.96671,4.4233837 77.92,3.9217763 c 1.228624,-0.6464857 3.251165,-0.6465539 4.48,-1.517e-4 0.528,0.2777431 17.317706,15.0493484 37.31045,32.8257894 26.22385,23.316794 36.47353,32.617744 36.79225,33.386695 1.35912,3.27912 -0.86299,6.775216 -4.30358,6.770905 C 151.4736,76.904054 150.448,76.676128 149.92,76.398397 149.392,76.120666 133.696,62.328096 115.04,45.748243 96.384,29.168391 80.898534,15.409684 80.627853,15.173339 80.200566,14.800254 75.603712,18.773063 45.747853,45.318205 26.834534,62.134227 11,76.079568 10.56,76.307853 c -1.3534653,0.702221 -2.6628394,0.811853 -4,0.334912 z"
  />
</svg>
