<svg
xmlns="http://www.w3.org/2000/svg"
viewBox="0 0 320 320">
<path
d="M 44.12863,319.78804 C 35.38809,319.03899 26.63671,315.84696 19.70929,310.88118 16.39871,308.50805 11.45207,303.57281 9.07345,300.26984 5.3856,295.14888 2.42039,288.45474 1.0531,282.16346 0.00118,277.32327 -0.00759,267.77531 1.0355,262.98342 c 1.40773,-6.46711 4.32875,-13.11049 8.20552,-18.66208 1.60092,-2.29255 13.07985,-13.9051 61.13574,-61.84746 45.04222,-44.93582 59.79005,-59.46314 61.78448,-60.86075 5.32225,-3.72958 11.93396,-6.633 18.18337,-7.98494 2.85613,-0.61787 4.32917,-0.7291 9.65541,-0.7291 5.32624,0 6.79927,0.11123 9.65541,0.7291 6.24941,1.35193 12.86109,4.25536 18.18337,7.98494 1.99458,1.39771 16.77722,15.95981 61.94565,61.02153 65.00052,64.84696 61.50062,61.14796 65.43214,69.1544 3.64971,7.43256 4.82459,13.09356 4.55969,21.97018 -0.13449,4.50686 -0.33597,6.3854 -0.97231,9.06582 -2.15758,9.08823 -6.16062,16.24662 -12.77624,22.84699 -7.19483,7.17825 -15.3761,11.47344 -25.80512,13.54774 l -3.7066,0.73724 -114.74327,0.0398 c -63.1088,0.0219 -116.04864,-0.072 -117.64409,-0.20879 z M 43.80632,94.689243 C 35.06587,93.940243 26.3144,90.748187 19.38698,85.782399 16.0764,83.409266 11.12976,78.474023 8.75114,75.171062 5.06329,70.050097 2.09807,63.355965 0.73078,57.064685 0.11149,54.215128 0,52.74549 0,47.431529 0,42.117567 0.11149,40.64793 0.73078,37.798372 2.71735,28.657651 7.10977,20.60785 13.70644,14.01848 20.68048,7.0521553 29.07672,2.6949909 39.29394,0.740047 L 43.16169,0 H 160 276.83831 l 3.86775,0.740047 c 10.21722,1.9549439 18.61347,6.3121083 25.58751,13.278433 6.59666,6.58937 10.98908,14.639171 12.97565,23.779892 0.61929,2.849558 0.73078,4.319195 0.73078,9.633157 0,5.313961 -0.11149,6.783599 -0.73078,9.633156 -1.98657,9.140722 -6.37899,17.190525 -12.97565,23.779892 -6.91016,6.90251 -15.22346,11.242974 -25.42636,13.275378 l -3.70659,0.738346 -115.22675,0.03976 c -63.3747,0.02187 -116.53211,-0.0721 -118.12755,-0.208822 z"/>
</svg>
