<svg
xmlns="http://www.w3.org/2000/svg"
viewBox="0 0 320 176">
<path
d="m 306.66667,175.67621 c 2.95576,-0.47369 6.67784,-2.52858 8.91354,-4.92101 4.62808,-4.95252 5.67893,-11.39716 2.88099,-17.66834 -0.98325,-2.2038 -2.40037,-3.64774 -74.44725,-75.856735 C 196.36332,29.472269 169.91447,3.1882163 168.7053,2.3906683 165.83444,0.49713111 164.05527,0 160.14931,0 156.24308,0 154.4638,0.49722138 151.59331,2.3909592 150.38548,3.1878051 123.81916,29.58229 76.105151,77.390874 6.6770286,146.9566 2.4245886,151.2813 1.4960786,153.26762 c -4.4517,9.52341 1.4842,20.79251 11.8152604,22.43088 2.62547,0.41637 290.754761,0.39447 293.355331,-0.0223 z"/>
</svg>
