<svg
xmlns="http://www.w3.org/2000/svg"
viewBox="0 0 320 240">
<path
d="M 13.333341,239.55847 C 10.377566,238.91253 6.6555004,236.1104 4.4197881,232.848 -0.20828286,226.09458 -1.2591422,217.30642 1.5388144,208.7548 2.5220557,205.74964 3.9391783,203.78062 75.986054,105.31381 123.63669,40.189465 150.08553,4.3475746 151.2947,3.2600132 154.16557,0.67790334 155.94474,0 159.8507,0 c 3.90622,0 5.68551,0.67802779 8.556,3.2604044 1.20782,1.0866053 27.77414,37.0790826 75.48816,102.2726156 69.42811,94.86234 73.68055,100.75966 74.60906,103.46828 4.4517,12.98647 -1.4842,28.35342 -11.81525,30.58756 -2.62547,0.56777 -290.754776,0.53792 -293.355329,-0.0304 z"/>
</svg>
