<svg
xmlns="http://www.w3.org/2000/svg"
viewBox="0 0 320 320">
<path
d="M 44.494879,319.77505 C 27.525884,318.3695 12.827288,308.63825 5.2106876,293.76682 -0.75090249,282.12681 -1.6006981,269.63128 2.6805253,256.56277 4.331255,251.52385 116.90654,26.546359 120.41042,21.283957 c 3.095,-4.648301 8.58293,-10.167126 13.03963,-13.1130185 14.32387,-9.4681268 31.49179,-10.7754999 46.85964,-3.5684582 7.476,3.5060109 14.76906,9.8064077 19.32471,16.6943947 3.52073,5.323226 116.4222,230.937335 118.05352,235.909575 1.93384,5.89433 2.32677,8.52023 2.31167,15.44838 -0.0112,5.10715 -0.13335,6.66963 -0.74152,9.48036 -1.97715,9.13758 -6.37816,17.21209 -12.96953,23.79508 -6.81294,6.80428 -14.44773,10.88837 -24.58079,13.14904 l -3.90325,0.87081 -115.04355,0.046 c -63.273965,0.0252 -116.493691,-0.0742 -118.266071,-0.22099 z"/>
</svg>
